<svg xmlns="http://www.w3.org/2000/svg" width="195" height="50" viewBox="0 0 195 50">
  <g id="prompt-logo" transform="translate(-310.86 -636.42)">
    <g id="Group_1" data-name="Group 1" transform="translate(425.869 661.163)">
      <path id="Path_1" data-name="Path 1" d="M830.82,748.43a1.718,1.718,0,0,1,1.215.5,1.64,1.64,0,0,1,.529,1.244V766.7a1.623,1.623,0,0,1-.544,1.244,1.8,1.8,0,0,1-1.257.5,1.689,1.689,0,0,1-1.772-1.743V750.173a1.661,1.661,0,0,1,.515-1.244A1.812,1.812,0,0,1,830.82,748.43Zm-.084,8.318h12.751v3.287H830.736Zm12.748-8.318a1.689,1.689,0,0,1,1.772,1.743V766.7a1.69,1.69,0,0,1-.5,1.244,1.8,1.8,0,0,1-1.328.5,1.719,1.719,0,0,1-1.215-.5,1.64,1.64,0,0,1-.529-1.244V750.173a1.615,1.615,0,0,1,.544-1.244A1.792,1.792,0,0,1,843.484,748.43Z" transform="translate(-828.99 -748.43)" fill="#174b71"/>
      <path id="Path_2" data-name="Path 2" d="M917.87,784.247a8.4,8.4,0,0,1-4.218-1.015,7.018,7.018,0,0,1-2.745-2.758,8.039,8.039,0,0,1-.957-3.944,8.656,8.656,0,0,1,1.044-4.389,7.382,7.382,0,0,1,2.729-2.787,7.043,7.043,0,0,1,3.574-.973,6.5,6.5,0,0,1,2.758.6,7.541,7.541,0,0,1,2.3,1.643,8,8,0,0,1,1.586,2.416,7.347,7.347,0,0,1,.586,2.916,1.469,1.469,0,0,1-.544,1.115,1.815,1.815,0,0,1-1.2.429H911.862L911,774.641H921.5l-.629.571v-.773a2.6,2.6,0,0,0-.586-1.486,3.845,3.845,0,0,0-1.315-1.044,3.742,3.742,0,0,0-1.672-.387,5.4,5.4,0,0,0-1.6.229,3.077,3.077,0,0,0-1.286.773,3.74,3.74,0,0,0-.857,1.457,7.189,7.189,0,0,0-.315,2.316,5.006,5.006,0,0,0,.644,2.616A4.4,4.4,0,0,0,917.7,781.1a6.683,6.683,0,0,0,1.686-.171,3.749,3.749,0,0,0,1.015-.415c.258-.162.491-.3.7-.415a2.183,2.183,0,0,1,.973-.258,1.441,1.441,0,0,1,1.459,1.428,1.786,1.786,0,0,1-.8,1.4,6.628,6.628,0,0,1-2.088,1.1A8.283,8.283,0,0,1,917.87,784.247Z" transform="translate(-891.969 -763.949)" fill="#174b71"/>
      <path id="Path_3" data-name="Path 3" d="M991.935,768.38a1.672,1.672,0,0,1,1.23.486,1.7,1.7,0,0,1,.486,1.257v12.093a1.714,1.714,0,0,1-.486,1.244,1.765,1.765,0,0,1-2.461,0,1.715,1.715,0,0,1-.486-1.244v-1.4l.628.258a1.6,1.6,0,0,1-.4.9,5.452,5.452,0,0,1-1.086,1.044,6.75,6.75,0,0,1-1.615.873,5.577,5.577,0,0,1-2.014.358,6.526,6.526,0,0,1-3.573-1.015,7.124,7.124,0,0,1-2.53-2.8,9.591,9.591,0,0,1,0-8.233,7.21,7.21,0,0,1,2.5-2.8,6.306,6.306,0,0,1,3.487-1.015,6.638,6.638,0,0,1,2.259.371,6.727,6.727,0,0,1,1.786.944,5.523,5.523,0,0,1,1.173,1.157,1.852,1.852,0,0,1,.415.986l-1.028.371v-2.088a1.714,1.714,0,0,1,.486-1.244A1.634,1.634,0,0,1,991.935,768.38ZM986.16,781.1a3.868,3.868,0,0,0,2.2-.629,4.258,4.258,0,0,0,1.473-1.715,5.471,5.471,0,0,0,.529-2.43,5.536,5.536,0,0,0-.529-2.459,4.258,4.258,0,0,0-1.473-1.715,3.872,3.872,0,0,0-2.2-.628,3.819,3.819,0,0,0-2.172.628,4.257,4.257,0,0,0-1.472,1.715,5.535,5.535,0,0,0-.529,2.459,5.47,5.47,0,0,0,.529,2.43,4.241,4.241,0,0,0,1.472,1.715A3.836,3.836,0,0,0,986.16,781.1Z" transform="translate(-945.449 -763.949)" fill="#174b71"/>
      <path id="Path_4" data-name="Path 4" d="M1061.021,767.093a1.542,1.542,0,0,1-.5,1.17,1.738,1.738,0,0,1-1.244.471,1.662,1.662,0,0,1-1.2-.471,1.562,1.562,0,0,1-.486-1.17V750.451a1.541,1.541,0,0,1,.5-1.17,1.748,1.748,0,0,1,1.244-.471,1.651,1.651,0,0,1,1.215.471,1.594,1.594,0,0,1,.471,1.17v16.642Z" transform="translate(-1006.818 -748.726)" fill="#174b71"/>
      <path id="Path_5" data-name="Path 5" d="M1079.4,758.434h6.776a1.563,1.563,0,0,1,1.6,1.6,1.477,1.477,0,0,1-.457,1.1,1.579,1.579,0,0,1-1.144.444H1079.4a1.564,1.564,0,0,1-1.6-1.6,1.48,1.48,0,0,1,.458-1.1A1.578,1.578,0,0,1,1079.4,758.434Zm3.058-3.574a1.594,1.594,0,0,1,1.215.5,1.738,1.738,0,0,1,.471,1.244v12.722a1.226,1.226,0,0,0,.158.657.892.892,0,0,0,.429.371,1.573,1.573,0,0,0,1.215-.013,1.571,1.571,0,0,1,.657-.129.966.966,0,0,1,.728.371,1.541,1.541,0,0,1-.544,2.343,3.636,3.636,0,0,1-1.872.515,9.836,9.836,0,0,1-1.328-.1,3.582,3.582,0,0,1-1.373-.486,2.983,2.983,0,0,1-1.073-1.186,4.7,4.7,0,0,1-.429-2.2V756.6a1.708,1.708,0,0,1,1.746-1.743Z" transform="translate(-1022.54 -753.432)" fill="#174b71"/>
      <path id="Path_6" data-name="Path 6" d="M1138.468,753.149a4.811,4.811,0,0,1,3.131.886,4.493,4.493,0,0,1,1.473,2.359,12.483,12.483,0,0,1,.4,3.274v7.318a1.713,1.713,0,0,1-.486,1.244,1.765,1.765,0,0,1-2.461,0,1.713,1.713,0,0,1-.486-1.244v-7.318a5.859,5.859,0,0,0-.229-1.7,2.337,2.337,0,0,0-.828-1.215,2.788,2.788,0,0,0-1.715-.458,3.593,3.593,0,0,0-1.859.458,2.952,2.952,0,0,0-1.157,1.215,3.688,3.688,0,0,0-.386,1.7v7.318a1.713,1.713,0,0,1-.486,1.244,1.765,1.765,0,0,1-2.461,0,1.713,1.713,0,0,1-.486-1.244V750.543a1.713,1.713,0,0,1,.486-1.244,1.764,1.764,0,0,1,2.461,0,1.713,1.713,0,0,1,.486,1.244v5.863l-.429-.087a6.319,6.319,0,0,1,.715-1.044,6.151,6.151,0,0,1,1.115-1.044,5.9,5.9,0,0,1,1.459-.786A4.974,4.974,0,0,1,1138.468,753.149Z" transform="translate(-1063.481 -748.718)" fill="#174b71"/>
    </g>
    <g id="Group_3" data-name="Group 3" transform="translate(339.56 661.343)">
      <g id="Group_2" data-name="Group 2">
        <path id="Path_7" data-name="Path 7" d="M447.243,767.17a6.455,6.455,0,0,1,3.554.988,7.09,7.09,0,0,1,2.463,2.714,9.089,9.089,0,0,1,0,7.949,7.121,7.121,0,0,1-2.476,2.743,6.362,6.362,0,0,1-3.509,1,6.157,6.157,0,0,1-1.961-.309,6.668,6.668,0,0,1-1.695-.84,6.549,6.549,0,0,1-1.357-1.253,6.3,6.3,0,0,1-.944-1.577l.531-.384v9.173a.879.879,0,0,1-.251.62.885.885,0,0,1-1.266,0,.879.879,0,0,1-.251-.62V768.147a.936.936,0,0,1,.235-.649.82.82,0,0,1,.649-.264.836.836,0,0,1,.633.264.914.914,0,0,1,.251.649v3.185l-.413-.235a5.111,5.111,0,0,1,.871-1.637,5.95,5.95,0,0,1,3.023-2.021A6.7,6.7,0,0,1,447.243,767.17Zm-.149,1.652a5.031,5.031,0,0,0-2.8.782,5.436,5.436,0,0,0-1.9,2.123,6.692,6.692,0,0,0-.693,3.112,6.894,6.894,0,0,0,.693,3.127,5.371,5.371,0,0,0,1.9,2.168,5.037,5.037,0,0,0,2.8.782,4.909,4.909,0,0,0,2.756-.782,5.521,5.521,0,0,0,1.9-2.168,6.787,6.787,0,0,0,.708-3.127,6.58,6.58,0,0,0-.708-3.1,5.594,5.594,0,0,0-1.9-2.139A4.91,4.91,0,0,0,447.094,768.822Z" transform="translate(-440.08 -763.188)" fill="#174b71"/>
        <path id="Path_8" data-name="Path 8" d="M509.594,781.535a.822.822,0,0,1-.649-.267.9.9,0,0,1-.235-.62V767.434a.879.879,0,0,1,.251-.62.89.89,0,0,1,1.266,0,.879.879,0,0,1,.251.62v4.426l-.442.089a6.8,6.8,0,0,1,.515-2.05,7.041,7.041,0,0,1,1.164-1.872,5.87,5.87,0,0,1,1.755-1.386,4.869,4.869,0,0,1,2.285-.531,2.52,2.52,0,0,1,1.033.222.749.749,0,0,1,.5.722.91.91,0,0,1-.235.677.764.764,0,0,1-.56.235,1.352,1.352,0,0,1-.575-.147,1.912,1.912,0,0,0-.811-.147,3.233,3.233,0,0,0-1.652.486,5.66,5.66,0,0,0-1.5,1.313,6.8,6.8,0,0,0-1.077,1.843,5.558,5.558,0,0,0-.4,2.05v7.285a.907.907,0,0,1-.884.884Z" transform="translate(-493.467 -762.363)" fill="#174b71"/>
        <path id="Path_9" data-name="Path 9" d="M556.023,773.986a8.164,8.164,0,0,1-.988,4.027,7.4,7.4,0,0,1-2.67,2.8,7.594,7.594,0,0,1-7.594,0,7.335,7.335,0,0,1-2.683-2.8,8.724,8.724,0,0,1,0-8.067,7.494,7.494,0,0,1,2.683-2.8,7.5,7.5,0,0,1,7.594,0,7.529,7.529,0,0,1,2.67,2.8A8.126,8.126,0,0,1,556.023,773.986Zm-1.768,0a6.781,6.781,0,0,0-.737-3.2,5.72,5.72,0,0,0-2.021-2.212,5.663,5.663,0,0,0-5.839,0,5.838,5.838,0,0,0-2.034,2.212,6.658,6.658,0,0,0-.753,3.2,6.565,6.565,0,0,0,.753,3.185,5.841,5.841,0,0,0,2.034,2.2,5.309,5.309,0,0,0,2.905.811,5.379,5.379,0,0,0,2.934-.811,5.739,5.739,0,0,0,2.021-2.2A6.687,6.687,0,0,0,554.255,773.986Z" transform="translate(-518.664 -762.363)" fill="#174b71"/>
        <path id="Path_10" data-name="Path 10" d="M620.146,767.17a5.1,5.1,0,0,1,3.125.959,4.861,4.861,0,0,1,1.77,2.847l-.413.118.178-.531a4.684,4.684,0,0,1,1.284-1.666,7.309,7.309,0,0,1,2.05-1.253,6.073,6.073,0,0,1,2.33-.471,5.112,5.112,0,0,1,2.994.8,4.533,4.533,0,0,1,1.652,2.139,8.372,8.372,0,0,1,.515,3.023v8.346a.879.879,0,0,1-.251.62.885.885,0,0,1-1.266,0,.879.879,0,0,1-.251-.62v-8.26a6.152,6.152,0,0,0-.384-2.212,3.4,3.4,0,0,0-1.208-1.592,3.734,3.734,0,0,0-2.212-.591,4.851,4.851,0,0,0-2.314.591,5.022,5.022,0,0,0-1.8,1.592,3.808,3.808,0,0,0-.693,2.212v8.26a.879.879,0,0,1-.251.62.885.885,0,0,1-1.266,0,.879.879,0,0,1-.251-.62v-8.351a6.368,6.368,0,0,0-.353-2.183,3.205,3.205,0,0,0-1.151-1.548,3.616,3.616,0,0,0-2.152-.575,4.771,4.771,0,0,0-2.285.575,4.82,4.82,0,0,0-1.739,1.548,3.791,3.791,0,0,0-.664,2.183v8.346a.911.911,0,0,1-.886.886.821.821,0,0,1-.648-.267.9.9,0,0,1-.236-.62V768.26a.879.879,0,0,1,.251-.62.89.89,0,0,1,1.266,0,.879.879,0,0,1,.251.62V771l-.8,1.091a4.635,4.635,0,0,1,.575-1.77,5.953,5.953,0,0,1,1.284-1.593,6.43,6.43,0,0,1,1.815-1.135A5.414,5.414,0,0,1,620.146,767.17Z" transform="translate(-574.883 -763.188)" fill="#174b71"/>
        <path id="Path_11" data-name="Path 11" d="M730.323,767.17a6.455,6.455,0,0,1,3.554.988,7.09,7.09,0,0,1,2.463,2.714,9.088,9.088,0,0,1,0,7.949,7.121,7.121,0,0,1-2.476,2.743,6.362,6.362,0,0,1-3.509,1,6.157,6.157,0,0,1-1.961-.309,6.667,6.667,0,0,1-1.695-.84,6.548,6.548,0,0,1-1.357-1.253,6.3,6.3,0,0,1-.944-1.577l.531-.384v9.173a.879.879,0,0,1-.251.62.885.885,0,0,1-1.266,0,.879.879,0,0,1-.251-.62V768.147a.937.937,0,0,1,.235-.649.821.821,0,0,1,.649-.264.836.836,0,0,1,.633.264.913.913,0,0,1,.251.649v3.185l-.413-.235a5.11,5.11,0,0,1,.871-1.637,5.951,5.951,0,0,1,3.023-2.021A6.7,6.7,0,0,1,730.323,767.17Zm-.147,1.652a5.031,5.031,0,0,0-2.8.782,5.436,5.436,0,0,0-1.9,2.123,6.693,6.693,0,0,0-.693,3.112,6.9,6.9,0,0,0,.693,3.127,5.371,5.371,0,0,0,1.9,2.168,5.037,5.037,0,0,0,2.8.782,4.909,4.909,0,0,0,2.756-.782,5.52,5.52,0,0,0,1.9-2.168,6.787,6.787,0,0,0,.709-3.127,6.579,6.579,0,0,0-.709-3.1,5.593,5.593,0,0,0-1.9-2.139A4.91,4.91,0,0,0,730.176,768.822Z" transform="translate(-660.288 -763.188)" fill="#174b71"/>
        <path id="Path_12" data-name="Path 12" d="M784.415,753.4h6.872a.782.782,0,0,1,.591.251.847.847,0,0,1,.235.6.757.757,0,0,1-.235.56.8.8,0,0,1-.591.235h-6.872a.825.825,0,0,1-.6-.251.791.791,0,0,1-.251-.575.782.782,0,0,1,.251-.591A.854.854,0,0,1,784.415,753.4Zm3.038-4.16a.836.836,0,0,1,.633.264.88.88,0,0,1,.251.62v14.807a2.689,2.689,0,0,0,.222,1.239,1.1,1.1,0,0,0,.575.546,1.99,1.99,0,0,0,.708.133,1.2,1.2,0,0,0,.429-.073,1.191,1.191,0,0,1,.429-.073.6.6,0,0,1,.458.207.756.756,0,0,1,.191.531.81.81,0,0,1-.471.693,2.161,2.161,0,0,1-1.122.28c-.178,0-.442-.016-.8-.044a2.989,2.989,0,0,1-1.091-.324,2.159,2.159,0,0,1-.928-.988,4.5,4.5,0,0,1-.369-2.034V750.128a.879.879,0,0,1,.251-.62A.8.8,0,0,1,787.453,749.24Z" transform="translate(-707.274 -749.24)" fill="#174b71"/>
      </g>
    </g>
    <g id="Group_4" data-name="Group 4" transform="translate(310.86 636.42)">
      <circle id="Ellipse_1" data-name="Ellipse 1" cx="3.176" cy="3.176" r="3.176" transform="translate(19.063 24.76)" fill="#78aa41"/>
      <circle id="Ellipse_2" data-name="Ellipse 2" cx="6.354" cy="6.354" r="6.354" transform="translate(6.352 27.671)" fill="#174b71"/>
      <circle id="Ellipse_3" data-name="Ellipse 3" cx="12.706" cy="12.706" r="12.706" transform="translate(0 0)" fill="#3c97d3"/>
    </g>
  </g>
</svg>
